<svg xmlns="http://www.w3.org/2000/svg" xmlns:xlink="http://www.w3.org/1999/xlink" contentStyleType="text/css" height="649px" preserveAspectRatio="none" style="width:629px;height:649px;background:#FFFFFF;" version="1.1" viewBox="0 0 629 649" width="629px" zoomAndPan="magnify"><defs/><g><text fill="#000000" font-family="sans-serif" font-size="14" font-weight="bold" lengthAdjust="spacing" textLength="271.0928" x="169.9" y="23.3369">State Diagram for ClockStatus in SHM</text><text fill="#000000" font-family="sans-serif" font-size="14" font-weight="bold" lengthAdjust="spacing" textLength="509.7354" x="55.1929" y="39.627">All transitions triggers by an update from chrony or Time Sync service</text><g id="UNKNOWN"><rect fill="#F1F1F1" height="50.2529" rx="12.5" ry="12.5" style="stroke:#181818;stroke-width:0.5;" width="92.1943" x="194.65" y="140.5801"/><line style="stroke:#181818;stroke-width:0.5;" x1="194.65" x2="286.8443" y1="166.8701" y2="166.8701"/><text fill="#008000" font-family="sans-serif" font-size="14" lengthAdjust="spacing" textLength="63.335" x="209.0797" y="158.8828">Unknown</text><text fill="#000000" font-family="sans-serif" font-size="12" lengthAdjust="spacing" textLength="3.7969" x="199.65" y="183.2725">&#160;</text></g><g id="FREE"><rect fill="#F1F1F1" height="50.2529" rx="12.5" ry="12.5" style="stroke:#181818;stroke-width:0.5;" width="114.0762" x="84.65" y="394.5801"/><line style="stroke:#181818;stroke-width:0.5;" x1="84.65" x2="198.7262" y1="420.8701" y2="420.8701"/><text fill="#008000" font-family="sans-serif" font-size="14" lengthAdjust="spacing" textLength="85.2168" x="99.0797" y="412.8828">FreeRunning</text><text fill="#000000" font-family="sans-serif" font-size="12" lengthAdjust="spacing" textLength="3.7969" x="89.65" y="437.2725">&#160;</text></g><g id="SYNC"><rect fill="#F1F1F1" height="50.2529" rx="12.5" ry="12.5" style="stroke:#181818;stroke-width:0.5;" width="119.9619" x="177.65" y="267.5801"/><line style="stroke:#181818;stroke-width:0.5;" x1="177.65" x2="297.6119" y1="293.8701" y2="293.8701"/><text fill="#008000" font-family="sans-serif" font-size="14" lengthAdjust="spacing" textLength="91.1025" x="192.0797" y="285.8828">Synchronized</text><text fill="#000000" font-family="sans-serif" font-size="12" lengthAdjust="spacing" textLength="3.7969" x="182.65" y="310.2725">&#160;</text></g><g id="DISRUPTED"><rect fill="#F1F1F1" height="64.2158" rx="12.5" ry="12.5" style="stroke:#181818;stroke-width:0.5;" width="99.8691" x="324.65" y="521.5801"/><line style="stroke:#181818;stroke-width:0.5;" x1="324.65" x2="424.5191" y1="547.8701" y2="547.8701"/><text fill="#008000" font-family="sans-serif" font-size="14" lengthAdjust="spacing" textLength="66.7461" x="341.2115" y="539.8828">Disrupted</text><text fill="#000000" font-family="sans-serif" font-size="12" lengthAdjust="spacing" textLength="62.9355" x="329.65" y="564.2725">onLeaving:</text><text fill="#000000" font-family="sans-serif" font-size="12" lengthAdjust="spacing" textLength="7.5938" x="329.65" y="578.2354">&#160;&#160;</text><text fill="#800080" font-family="sans-serif" font-size="12" lengthAdjust="spacing" textLength="72.2754" x="337.2438" y="578.2354">reset chrony</text></g><ellipse cx="240.65" cy="69.5801" fill="#222222" rx="10" ry="10" style="stroke:#222222;stroke-width:1.0;"/><!--link *start* to UNKNOWN--><g id="link_*start*_UNKNOWN"><path d="M240.65,79.5901 C240.65,93.4701 240.65,114.5501 240.65,134.4201 " fill="none" id="*start*-to-UNKNOWN" style="stroke:#181818;stroke-width:1.0;"/><polygon fill="#181818" points="240.65,140.4201,244.65,131.4201,240.65,135.4201,236.65,131.4201,240.65,140.4201" style="stroke:#181818;stroke-width:1.0;"/></g><!--link UNKNOWN to SYNC--><g id="link_UNKNOWN_SYNC"><path d="M239.02,190.7601 C238.46,200.0801 237.92,210.8201 237.65,220.5801 C237.21,236.1101 237.1662,247.5502 237.2662,261.2602 " fill="none" id="UNKNOWN-to-SYNC" style="stroke:#181818;stroke-width:1.0;"/><polygon fill="#181818" points="237.31,267.2601,241.2442,258.2311,237.2735,262.2602,233.2445,258.2895,237.31,267.2601" style="stroke:#181818;stroke-width:1.0;"/><text fill="#0000FF" font-family="sans-serif" font-size="13" lengthAdjust="spacing" textLength="84.2207" x="238.65" y="233.9326">synchronized</text><text fill="#000000" font-family="sans-serif" font-size="13" lengthAdjust="spacing" textLength="28.3105" x="326.984" y="233.9326">AND</text><text fill="#A0522D" font-family="sans-serif" font-size="13" lengthAdjust="spacing" textLength="46.4395" x="359.4078" y="233.9326">reliable</text></g><!--link SYNC to UNKNOWN--><g id="link_SYNC_UNKNOWN"><path d="M177.48,273.8201 C137.52,261.4301 91.38,245.7001 85.65,237.5801 C81.29,231.4101 81.27,226.7401 85.65,220.5801 C110.16,186.0801 152.4367,174.1871 188.6167,169.6471 " fill="none" id="SYNC-to-UNKNOWN" style="stroke:#181818;stroke-width:1.0;"/><polygon fill="#181818" points="194.57,168.9001,185.142,166.0518,189.6089,169.5226,186.1381,173.9895,194.57,168.9001" style="stroke:#181818;stroke-width:1.0;"/><text fill="#0000FF" font-family="sans-serif" font-size="13" lengthAdjust="spacing" textLength="57.8716" x="86.65" y="233.9326">unknown</text><text fill="#000000" font-family="sans-serif" font-size="13" lengthAdjust="spacing" textLength="18.3193" x="148.6349" y="233.9326">OR</text><text fill="#A0522D" font-family="sans-serif" font-size="13" lengthAdjust="spacing" textLength="57.8716" x="171.0675" y="233.9326">unknown</text></g><!--link UNKNOWN to DISRUPTED--><g id="link_UNKNOWN_DISRUPTED"><path d="M286.69,167.1401 C326.69,170.3701 382.49,182.0901 410.65,220.5801 C445.31,267.9601 404.1435,442.3194 384.7835,515.5494 " fill="none" id="UNKNOWN-to-DISRUPTED" style="stroke:#181818;stroke-width:1.0;"/><polygon fill="#181818" points="383.25,521.3501,389.4175,513.6714,384.528,516.5162,381.6832,511.6266,383.25,521.3501" style="stroke:#181818;stroke-width:1.0;"/><text fill="#A0522D" font-family="sans-serif" font-size="13" lengthAdjust="spacing" textLength="60.4233" x="419.65" y="360.9326">disrupted</text></g><!--link DISRUPTED to UNKNOWN--><g id="link_DISRUPTED_UNKNOWN"><path d="M409.22,521.4201 C447.21,483.3101 501.28,415.4401 488.65,347.5801 C477.57,288.1001 484.58,261.1001 439.65,220.5801 C397.51,182.5801 337.2428,171.3934 292.9028,168.0334 " fill="none" id="DISRUPTED-to-UNKNOWN" style="stroke:#181818;stroke-width:1.0;"/><polygon fill="#181818" points="286.92,167.5801,295.592,172.2487,291.9057,167.9579,296.1965,164.2716,286.92,167.5801" style="stroke:#181818;stroke-width:1.0;"/><text fill="#A0522D" font-family="sans-serif" font-size="13" lengthAdjust="spacing" textLength="46.4395" x="490.65" y="360.9326">reliable</text><text fill="#000000" font-family="sans-serif" font-size="13" lengthAdjust="spacing" textLength="18.3193" x="541.2027" y="360.9326">OR</text><text fill="#A0522D" font-family="sans-serif" font-size="13" lengthAdjust="spacing" textLength="57.8716" x="563.6354" y="360.9326">unknown</text></g><!--link FREE to DISRUPTED--><g id="link_FREE_DISRUPTED"><path d="M167.55,444.7301 C184.36,459.5501 207.23,478.1901 229.65,491.5801 C259.54,509.4401 290.0019,522.5338 318.7019,533.2938 " fill="none" id="FREE-to-DISRUPTED" style="stroke:#181818;stroke-width:1.0;"/><polygon fill="#181818" points="324.32,535.4001,317.297,528.4952,319.6382,533.6448,314.4886,535.986,324.32,535.4001" style="stroke:#181818;stroke-width:1.0;"/><text fill="#A0522D" font-family="sans-serif" font-size="13" lengthAdjust="spacing" textLength="60.4233" x="230.65" y="487.9326">disrupted</text></g><!--link FREE to SYNC--><g id="link_FREE_SYNC"><path d="M106.5,394.4501 C91.03,380.8001 78.61,363.3501 89.65,347.5801 C95.13,339.7401 133.1669,326.1533 171.6869,313.7933 " fill="none" id="FREE-to-SYNC" style="stroke:#181818;stroke-width:1.0;"/><polygon fill="#181818" points="177.4,311.9601,167.6082,310.9011,172.6391,313.4877,170.0525,318.5186,177.4,311.9601" style="stroke:#181818;stroke-width:1.0;"/><text fill="#0000FF" font-family="sans-serif" font-size="13" lengthAdjust="spacing" textLength="84.2207" x="90.65" y="360.9326">synchronized</text></g><!--link SYNC to FREE--><g id="link_SYNC_FREE"><path d="M219.14,317.6801 C202.14,339.8201 180.7345,367.6815 163.7545,389.7915 " fill="none" id="SYNC-to-FREE" style="stroke:#181818;stroke-width:1.0;"/><polygon fill="#181818" points="160.1,394.5501,168.7542,389.8485,163.1454,390.5846,162.4094,384.9758,160.1,394.5501" style="stroke:#181818;stroke-width:1.0;"/><text fill="#0000FF" font-family="sans-serif" font-size="13" lengthAdjust="spacing" textLength="74.0391" x="196.65" y="360.9326">freerunning</text></g><!--link FREE to UNKNOWN--><g id="link_FREE_UNKNOWN"><path d="M93.83,394.5101 C65.41,377.3401 31.84,351.3201 15.65,317.5801 C6.03,297.5501 6,287.6001 15.65,267.5801 C47.62,201.2401 132.2575,179.2788 188.2575,171.4688 " fill="none" id="FREE-to-UNKNOWN" style="stroke:#181818;stroke-width:1.0;"/><polygon fill="#181818" points="194.2,170.6401,184.7338,167.9216,189.2479,171.3307,185.8388,175.8449,194.2,170.6401" style="stroke:#181818;stroke-width:1.0;"/><text fill="#0000FF" font-family="sans-serif" font-size="13" lengthAdjust="spacing" textLength="57.8716" x="16.65" y="297.4326">unknown</text><text fill="#000000" font-family="sans-serif" font-size="13" lengthAdjust="spacing" textLength="18.3193" x="78.6349" y="297.4326">OR</text><text fill="#A0522D" font-family="sans-serif" font-size="13" lengthAdjust="spacing" textLength="57.8716" x="101.0675" y="297.4326">unknown</text></g><!--link SYNC to DISRUPTED--><g id="link_SYNC_DISRUPTED"><path d="M258.32,317.7301 C265.55,326.7701 273.4,337.3401 279.65,347.5801 C315.28,406.0201 344.2678,474.4588 360.5278,515.6688 " fill="none" id="SYNC-to-DISRUPTED" style="stroke:#181818;stroke-width:1.0;"/><polygon fill="#181818" points="362.73,521.2501,363.1476,511.4101,360.8949,516.599,355.7059,514.3463,362.73,521.2501" style="stroke:#181818;stroke-width:1.0;"/><text fill="#A0522D" font-family="sans-serif" font-size="13" lengthAdjust="spacing" textLength="60.4233" x="329.65" y="424.4326">disrupted</text></g><rect fill="#DDDDDD" height="26.29" id="_legend" rx="7.5" ry="7.5" style="stroke:#000000;stroke-width:1.0;" width="330.3662" x="142.5704" y="602.7959"/><text fill="#008000" font-family="sans-serif" font-size="14" lengthAdjust="spacing" textLength="33.5439" x="147.5704" y="621.0986">State</text><text fill="#000000" font-family="sans-serif" font-size="14" lengthAdjust="spacing" textLength="5.2295" x="185.544" y="621.0986">|</text><text fill="#0000FF" font-family="sans-serif" font-size="14" lengthAdjust="spacing" textLength="83.6855" x="195.2032" y="621.0986">Clock Status</text><text fill="#000000" font-family="sans-serif" font-size="14" lengthAdjust="spacing" textLength="5.2295" x="283.3184" y="621.0986">|</text><text fill="#A0522D" font-family="sans-serif" font-size="14" lengthAdjust="spacing" textLength="117.4688" x="292.9776" y="621.0986">Disruption Status</text><text fill="#000000" font-family="sans-serif" font-size="14" lengthAdjust="spacing" textLength="5.2295" x="414.876" y="621.0986">|</text><text fill="#800080" font-family="sans-serif" font-size="14" lengthAdjust="spacing" textLength="43.4014" x="424.5352" y="621.0986">Action</text><!--SRC=[hLHTIyCm57tFhxZuCXM6xqKAmsugQYVxG4HzoBgx6fRTZAHL9lvuqwxDbcr5XJqbX7FEFVSakPd89C8munb297Yg-G9cIiELLCcyECuD28BXpGEy4dIaX4npCY8JYepTYpH5RM2o0awGBwU5paoh1IJlMj4AhDH8B6o55ILWK7-811bZfYnuSfaegNIGQaGAOKnpKfy4bnVbSNW2tC0ulelxJt5mcDApoo0d4fJwjDwWsstW55OAS-8Bfpvf-1nVDP0YONI-p7OPqUrmC7uSTQC05DqZ_x160XiKLEnbhfSIGuq6iogIci_Oo_aRjDjXtI9hLPljmw1MciWSmzDy7L6j0PquWhW_ya3JskgPW_K7DS889EBXZWxRhbocu2cQhSIyqhweHYduHE91rQsaV9Qpkmd6OGycqL3jzoPRlcwZerqUAnxJVvjmdB_5kS4VlFZTU_-zLwTN_WHFR6QVj5v_ccR1lSjaHID7TEZa_X6gu_ofATPo-EEzQIOnHPeozyMlom5HJb2dy-sLAcSfh8VfFgGgL0qOErORaTKmwIG5oXcoPc3jwGS0]--></g></svg>