<svg xmlns="http://www.w3.org/2000/svg" xmlns:xlink="http://www.w3.org/1999/xlink" contentStyleType="text/css" height="649px" preserveAspectRatio="none" style="width:982px;height:649px;background:#FFFFFF;" version="1.1" viewBox="0 0 982 649" width="982px" zoomAndPan="magnify"><defs/><g><text fill="#000000" font-family="sans-serif" font-size="14" font-weight="bold" lengthAdjust="spacing" textLength="271.0928" x="346.52" y="23.3369">State Diagram for ClockStatus in SHM</text><text fill="#000000" font-family="sans-serif" font-size="14" font-weight="bold" lengthAdjust="spacing" textLength="509.7354" x="231.8129" y="39.627">All transitions triggers by an update from chrony or Time Sync service</text><g id="UNKNOWN"><rect fill="#F1F1F1" height="50.2529" rx="12.5" ry="12.5" style="stroke:#181818;stroke-width:0.5;" width="92.1943" x="465.89" y="140.5801"/><line style="stroke:#181818;stroke-width:0.5;" x1="465.89" x2="558.0843" y1="166.8701" y2="166.8701"/><text fill="#008000" font-family="sans-serif" font-size="14" lengthAdjust="spacing" textLength="63.335" x="480.3197" y="158.8828">Unknown</text><text fill="#000000" font-family="sans-serif" font-size="12" lengthAdjust="spacing" textLength="3.7969" x="470.89" y="183.2725">&#160;</text></g><g id="FREE"><rect fill="#F1F1F1" height="50.2529" rx="12.5" ry="12.5" style="stroke:#181818;stroke-width:0.5;" width="114.0762" x="122.89" y="267.5801"/><line style="stroke:#181818;stroke-width:0.5;" x1="122.89" x2="236.9662" y1="293.8701" y2="293.8701"/><text fill="#008000" font-family="sans-serif" font-size="14" lengthAdjust="spacing" textLength="85.2168" x="137.3197" y="285.8828">FreeRunning</text><text fill="#000000" font-family="sans-serif" font-size="12" lengthAdjust="spacing" textLength="3.7969" x="127.89" y="310.2725">&#160;</text></g><g id="SYNC"><rect fill="#F1F1F1" height="50.2529" rx="12.5" ry="12.5" style="stroke:#181818;stroke-width:0.5;" width="119.9619" x="344.89" y="394.5801"/><line style="stroke:#181818;stroke-width:0.5;" x1="344.89" x2="464.8519" y1="420.8701" y2="420.8701"/><text fill="#008000" font-family="sans-serif" font-size="14" lengthAdjust="spacing" textLength="91.1025" x="359.3197" y="412.8828">Synchronized</text><text fill="#000000" font-family="sans-serif" font-size="12" lengthAdjust="spacing" textLength="3.7969" x="349.89" y="437.2725">&#160;</text></g><g id="DISRUPTED"><rect fill="#F1F1F1" height="64.2158" rx="12.5" ry="12.5" style="stroke:#181818;stroke-width:0.5;" width="99.8691" x="681.89" y="521.5801"/><line style="stroke:#181818;stroke-width:0.5;" x1="681.89" x2="781.7591" y1="547.8701" y2="547.8701"/><text fill="#008000" font-family="sans-serif" font-size="14" lengthAdjust="spacing" textLength="66.7461" x="698.4515" y="539.8828">Disrupted</text><text fill="#000000" font-family="sans-serif" font-size="12" lengthAdjust="spacing" textLength="62.9355" x="686.89" y="564.2725">onLeaving:</text><text fill="#000000" font-family="sans-serif" font-size="12" lengthAdjust="spacing" textLength="7.5938" x="686.89" y="578.2354">&#160;&#160;</text><text fill="#800080" font-family="sans-serif" font-size="12" lengthAdjust="spacing" textLength="72.2754" x="694.4838" y="578.2354">reset chrony</text></g><ellipse cx="511.89" cy="69.5801" fill="#222222" rx="10" ry="10" style="stroke:#222222;stroke-width:1.0;"/><!--link *start* to UNKNOWN--><g id="link_*start*_UNKNOWN"><path d="M511.89,79.5901 C511.89,93.4701 511.89,114.5501 511.89,134.4201 " fill="none" id="*start*-to-UNKNOWN" style="stroke:#181818;stroke-width:1.0;"/><polygon fill="#181818" points="511.89,140.4201,515.89,131.4201,511.89,135.4201,507.89,131.4201,511.89,140.4201" style="stroke:#181818;stroke-width:1.0;"/></g><!--link UNKNOWN to FREE--><g id="link_UNKNOWN_FREE"><path d="M465.7,168.3901 C351.73,173.3201 64.24,188.8301 35.89,220.5801 C6,254.0501 64.7638,272.3987 116.8638,282.2187 " fill="none" id="UNKNOWN-to-FREE" style="stroke:#181818;stroke-width:1.0;"/><polygon fill="#181818" points="122.76,283.3301,114.6566,277.7323,117.8465,282.404,113.1748,285.5939,122.76,283.3301" style="stroke:#181818;stroke-width:1.0;"/><text fill="#0000FF" font-family="sans-serif" font-size="13" lengthAdjust="spacing" textLength="74.0391" x="36.89" y="233.9326">freerunning</text><text fill="#000000" font-family="sans-serif" font-size="13" lengthAdjust="spacing" textLength="28.3105" x="115.0423" y="233.9326">AND</text><text fill="#A0522D" font-family="sans-serif" font-size="13" lengthAdjust="spacing" textLength="46.4395" x="147.4662" y="233.9326">reliable</text></g><!--link FREE to UNKNOWN--><g id="link_FREE_UNKNOWN"><path d="M192.49,267.4301 C202.02,251.6201 216.57,231.8701 234.89,220.5801 C306.85,176.2501 401.6013,167.2661 459.6713,166.0461 " fill="none" id="FREE-to-UNKNOWN" style="stroke:#181818;stroke-width:1.0;"/><polygon fill="#181818" points="465.67,165.9201,456.588,162.11,460.6711,166.0251,456.756,170.1082,465.67,165.9201" style="stroke:#181818;stroke-width:1.0;"/><text fill="#0000FF" font-family="sans-serif" font-size="13" lengthAdjust="spacing" textLength="57.8716" x="235.89" y="233.9326">unknown</text><text fill="#000000" font-family="sans-serif" font-size="13" lengthAdjust="spacing" textLength="18.3193" x="297.8749" y="233.9326">OR</text><text fill="#A0522D" font-family="sans-serif" font-size="13" lengthAdjust="spacing" textLength="57.8716" x="320.3075" y="233.9326">unknown</text></g><!--link UNKNOWN to SYNC--><g id="link_UNKNOWN_SYNC"><path d="M530.06,190.7501 C550.84,221.5801 579.25,275.8701 556.89,317.5801 C537.42,353.8801 503.9287,376.742 470.3587,393.022 " fill="none" id="UNKNOWN-to-SYNC" style="stroke:#181818;stroke-width:1.0;"/><polygon fill="#181818" points="464.96,395.6401,474.8034,395.312,469.4589,393.4583,471.3126,388.1138,464.96,395.6401" style="stroke:#181818;stroke-width:1.0;"/><text fill="#0000FF" font-family="sans-serif" font-size="13" lengthAdjust="spacing" textLength="84.2207" x="565.89" y="297.4326">synchronized</text><text fill="#000000" font-family="sans-serif" font-size="13" lengthAdjust="spacing" textLength="28.3105" x="654.224" y="297.4326">AND</text><text fill="#A0522D" font-family="sans-serif" font-size="13" lengthAdjust="spacing" textLength="46.4395" x="686.6478" y="297.4326">reliable</text></g><!--link SYNC to UNKNOWN--><g id="link_SYNC_UNKNOWN"><path d="M399.22,394.3901 C393.24,363.5401 386.93,309.2301 404.89,267.5801 C418.79,235.3301 443.7701,212.0988 468.4101,194.2588 " fill="none" id="SYNC-to-UNKNOWN" style="stroke:#181818;stroke-width:1.0;"/><polygon fill="#181818" points="473.27,190.7401,463.6343,192.7782,469.2201,193.6723,468.3259,199.2581,473.27,190.7401" style="stroke:#181818;stroke-width:1.0;"/><text fill="#0000FF" font-family="sans-serif" font-size="13" lengthAdjust="spacing" textLength="57.8716" x="405.89" y="297.4326">unknown</text><text fill="#000000" font-family="sans-serif" font-size="13" lengthAdjust="spacing" textLength="18.3193" x="467.8749" y="297.4326">OR</text><text fill="#A0522D" font-family="sans-serif" font-size="13" lengthAdjust="spacing" textLength="57.8716" x="490.3075" y="297.4326">unknown</text></g><!--link UNKNOWN to DISRUPTED--><g id="link_UNKNOWN_DISRUPTED"><path d="M558.11,172.0201 C612.71,181.1901 701.23,205.3201 741.89,267.5801 C793.32,346.3401 764.8365,459.5012 745.7265,515.5412 " fill="none" id="UNKNOWN-to-DISRUPTED" style="stroke:#181818;stroke-width:1.0;"/><polygon fill="#181818" points="743.79,521.2201,750.4807,513.9928,745.4038,516.4877,742.9089,511.4107,743.79,521.2201" style="stroke:#181818;stroke-width:1.0;"/><text fill="#A0522D" font-family="sans-serif" font-size="13" lengthAdjust="spacing" textLength="60.4233" x="770.89" y="360.9326">disrupted</text></g><!--link DISRUPTED to UNKNOWN--><g id="link_DISRUPTED_UNKNOWN"><path d="M767.06,521.3101 C806.49,482.2701 862.15,412.6601 839.89,347.5801 C815.71,276.9301 795.1,256.9601 729.89,220.5801 C675.58,190.2801 610.2716,177.5407 564.2616,171.6607 " fill="none" id="DISRUPTED-to-UNKNOWN" style="stroke:#181818;stroke-width:1.0;"/><polygon fill="#181818" points="558.31,170.9001,566.7303,176.0087,563.2697,171.5339,567.7445,168.0733,558.31,170.9001" style="stroke:#181818;stroke-width:1.0;"/><text fill="#A0522D" font-family="sans-serif" font-size="13" lengthAdjust="spacing" textLength="46.4395" x="843.89" y="360.9326">reliable</text><text fill="#000000" font-family="sans-serif" font-size="13" lengthAdjust="spacing" textLength="18.3193" x="894.4427" y="360.9326">OR</text><text fill="#A0522D" font-family="sans-serif" font-size="13" lengthAdjust="spacing" textLength="57.8716" x="916.8754" y="360.9326">unknown</text></g><!--link FREE to DISRUPTED--><g id="link_FREE_DISRUPTED"><path d="M167.81,317.8701 C162.51,332.0401 158.9,349.9601 165.89,364.5801 C190.27,415.6301 214.03,419.8001 264.89,444.5801 C406.27,513.4801 587.4603,538.9076 675.7503,547.8176 " fill="none" id="FREE-to-DISRUPTED" style="stroke:#181818;stroke-width:1.0;"/><polygon fill="#181818" points="681.72,548.4201,673.1671,543.5366,676.7453,547.918,672.3639,551.4962,681.72,548.4201" style="stroke:#181818;stroke-width:1.0;"/><text fill="#A0522D" font-family="sans-serif" font-size="13" lengthAdjust="spacing" textLength="60.4233" x="265.89" y="424.4326">disrupted</text></g><!--link FREE to SYNC--><g id="link_FREE_SYNC"><path d="M215.91,317.6601 C237.8,331.9201 266.53,350.0001 292.89,364.5801 C311.78,375.0301 327.5799,382.9766 346.4299,391.9266 " fill="none" id="FREE-to-SYNC" style="stroke:#181818;stroke-width:1.0;"/><polygon fill="#181818" points="351.85,394.5001,345.4355,387.0265,347.3333,392.3555,342.0042,394.2533,351.85,394.5001" style="stroke:#181818;stroke-width:1.0;"/><text fill="#0000FF" font-family="sans-serif" font-size="13" lengthAdjust="spacing" textLength="84.2207" x="293.89" y="360.9326">synchronized</text></g><!--link SYNC to FREE--><g id="link_SYNC_FREE"><path d="M344.64,412.3201 C285.44,404.7901 201.11,389.8901 180.89,364.5801 C170.57,351.6701 169.777,338.7457 172.327,323.7057 " fill="none" id="SYNC-to-FREE" style="stroke:#181818;stroke-width:1.0;"/><polygon fill="#181818" points="173.33,317.7901,167.8818,325.9948,172.4942,322.7197,175.7693,327.3321,173.33,317.7901" style="stroke:#181818;stroke-width:1.0;"/><text fill="#0000FF" font-family="sans-serif" font-size="13" lengthAdjust="spacing" textLength="74.0391" x="181.89" y="360.9326">freerunning</text></g><!--link SYNC to DISRUPTED--><g id="link_SYNC_DISRUPTED"><path d="M464.48,444.6401 C526.75,469.7701 617.7763,506.514 676.2363,530.114 " fill="none" id="SYNC-to-DISRUPTED" style="stroke:#181818;stroke-width:1.0;"/><polygon fill="#181818" points="681.8,532.3601,674.9518,525.2818,677.1635,530.4884,671.957,532.7002,681.8,532.3601" style="stroke:#181818;stroke-width:1.0;"/><text fill="#A0522D" font-family="sans-serif" font-size="13" lengthAdjust="spacing" textLength="60.4233" x="578.89" y="487.9326">disrupted</text></g><rect fill="#DDDDDD" height="26.29" id="_legend" rx="7.5" ry="7.5" style="stroke:#000000;stroke-width:1.0;" width="330.3662" x="319.1904" y="602.7959"/><text fill="#008000" font-family="sans-serif" font-size="14" lengthAdjust="spacing" textLength="33.5439" x="324.1904" y="621.0986">State</text><text fill="#000000" font-family="sans-serif" font-size="14" lengthAdjust="spacing" textLength="5.2295" x="362.164" y="621.0986">|</text><text fill="#0000FF" font-family="sans-serif" font-size="14" lengthAdjust="spacing" textLength="83.6855" x="371.8232" y="621.0986">Clock Status</text><text fill="#000000" font-family="sans-serif" font-size="14" lengthAdjust="spacing" textLength="5.2295" x="459.9384" y="621.0986">|</text><text fill="#A0522D" font-family="sans-serif" font-size="14" lengthAdjust="spacing" textLength="117.4688" x="469.5976" y="621.0986">Disruption Status</text><text fill="#000000" font-family="sans-serif" font-size="14" lengthAdjust="spacing" textLength="5.2295" x="591.496" y="621.0986">|</text><text fill="#800080" font-family="sans-serif" font-size="14" lengthAdjust="spacing" textLength="43.4014" x="601.1552" y="621.0986">Action</text><!--SRC=[hLHTIyCm57tFhxZuCXN4zoA5OUS7QYVxG4HzoBgx6fRTZAHL9lvuqwxDbct5ANjg2UUSU-v9E9d8948_unb297Yg-GmcIiEbLCcqECuD28B-pGEy4hIbX4npCY8JYepz5scAsi1e0PmWduyBdObMCqZUjQ85MAc1cDa92qh0eFuG2JB6J3dmw29HKkaWrOWKmf2cf3u9BixBu_08k85XV1Ttd-9WD-NAVdevaQ3KfrtrEfq6Jc6bC2U-SEoJ-i_nPGCf4aRdysoJ4TtsUyF7GISAGD4zyWzh9B11GSMUvtekCTHeCAiYgVcClPo-mTbPMA_8MjNF-c5GAuraZk5nleoere1s747S7NYWSMtrnC6wlHfX11BnS4E7hKyke_CK9pO3lKpPc-nhQfI2ZoJk52sZzKJDsZNyLtKjVf_bCbYbxR0xussOzdjoBL-tqT4cZnKn_tK9nzalpXL-vslQV4o_x-hqzdiZMu9RbycAHGxeqCdz8LJ7sMifrdBumxrf9Z556ZFN6zTbwvIrx7I-lL5bGSEoeRSXrQ2gjMnNDoAhXced1SePicPWwUa7]--></g></svg>