<svg xmlns="http://www.w3.org/2000/svg" xmlns:xlink="http://www.w3.org/1999/xlink" contentStyleType="text/css" height="508px" preserveAspectRatio="none" style="width:542px;height:508px;background:#FFFFFF;" version="1.1" viewBox="0 0 542 508" width="542px" zoomAndPan="magnify"><defs/><g><text fill="#000000" font-family="sans-serif" font-size="14" font-weight="bold" lengthAdjust="spacing" textLength="452.9629" x="40.6934" y="23.3369">State Diagram for ClockStatus in SHM WITHOUT Live Migration</text><text fill="#000000" font-family="sans-serif" font-size="14" font-weight="bold" lengthAdjust="spacing" textLength="509.7354" x="14.6143" y="39.627">All transitions triggers by an update from chrony or Time Sync service</text><g id="UNKNOWN"><rect fill="#F1F1F1" height="50.2529" rx="12.5" ry="12.5" style="stroke:#181818;stroke-width:0.5;" width="92.1943" x="235.404" y="140.5801"/><line style="stroke:#181818;stroke-width:0.5;" x1="235.404" x2="327.5983" y1="166.8701" y2="166.8701"/><text fill="#008000" font-family="sans-serif" font-size="14" lengthAdjust="spacing" textLength="63.335" x="249.8337" y="158.8828">Unknown</text><text fill="#000000" font-family="sans-serif" font-size="12" lengthAdjust="spacing" textLength="3.7969" x="240.404" y="183.2725">&#160;</text></g><g id="FREE"><rect fill="#F1F1F1" height="50.2529" rx="12.5" ry="12.5" style="stroke:#181818;stroke-width:0.5;" width="114.0762" x="103.404" y="267.5801"/><line style="stroke:#181818;stroke-width:0.5;" x1="103.404" x2="217.4802" y1="293.8701" y2="293.8701"/><text fill="#008000" font-family="sans-serif" font-size="14" lengthAdjust="spacing" textLength="85.2168" x="117.8337" y="285.8828">FreeRunning</text><text fill="#000000" font-family="sans-serif" font-size="12" lengthAdjust="spacing" textLength="3.7969" x="108.404" y="310.2725">&#160;</text></g><g id="SYNC"><rect fill="#F1F1F1" height="50.2529" rx="12.5" ry="12.5" style="stroke:#181818;stroke-width:0.5;" width="119.9619" x="212.404" y="394.5801"/><line style="stroke:#181818;stroke-width:0.5;" x1="212.404" x2="332.3659" y1="420.8701" y2="420.8701"/><text fill="#008000" font-family="sans-serif" font-size="14" lengthAdjust="spacing" textLength="91.1025" x="226.8337" y="412.8828">Synchronized</text><text fill="#000000" font-family="sans-serif" font-size="12" lengthAdjust="spacing" textLength="3.7969" x="217.404" y="437.2725">&#160;</text></g><ellipse cx="281.404" cy="69.5801" fill="#222222" rx="10" ry="10" style="stroke:#222222;stroke-width:1.0;"/><!--link *start* to UNKNOWN--><g id="link_*start*_UNKNOWN"><path d="M281.404,79.5901 C281.404,93.4701 281.404,114.5501 281.404,134.4201 " fill="none" id="*start*-to-UNKNOWN" style="stroke:#181818;stroke-width:1.0;"/><polygon fill="#181818" points="281.404,140.4201,285.404,131.4201,281.404,135.4201,277.404,131.4201,281.404,140.4201" style="stroke:#181818;stroke-width:1.0;"/></g><!--link UNKNOWN to FREE--><g id="link_UNKNOWN_FREE"><path d="M235.394,168.2701 C197.914,172.3801 147.134,184.7401 121.404,220.5801 C110.824,235.3201 116.8399,248.7349 129.3499,262.8849 " fill="none" id="UNKNOWN-to-FREE" style="stroke:#181818;stroke-width:1.0;"/><polygon fill="#181818" points="133.324,267.3801,130.3596,257.988,130.0122,263.6341,124.366,263.2868,133.324,267.3801" style="stroke:#181818;stroke-width:1.0;"/><text fill="#0000FF" font-family="sans-serif" font-size="13" lengthAdjust="spacing" textLength="74.0391" x="122.404" y="233.9326">freerunning</text></g><!--link FREE to UNKNOWN--><g id="link_FREE_UNKNOWN"><path d="M183.664,267.5501 C205.064,245.4401 232.4711,217.1313 253.9011,194.9913 " fill="none" id="FREE-to-UNKNOWN" style="stroke:#181818;stroke-width:1.0;"/><polygon fill="#181818" points="258.074,190.6801,248.9405,194.3649,254.5966,194.2727,254.6887,199.9289,258.074,190.6801" style="stroke:#181818;stroke-width:1.0;"/><text fill="#0000FF" font-family="sans-serif" font-size="13" lengthAdjust="spacing" textLength="57.8716" x="229.404" y="233.9326">unknown</text></g><!--link UNKNOWN to SYNC--><g id="link_UNKNOWN_SYNC"><path d="M288.814,190.7201 C299.234,228.3901 315.374,303.1801 300.404,364.5801 C297.874,374.9401 295.886,380.2786 290.896,389.3086 " fill="none" id="UNKNOWN-to-SYNC" style="stroke:#181818;stroke-width:1.0;"/><polygon fill="#181818" points="287.994,394.5601,295.848,388.6175,290.4123,390.1838,288.846,384.7481,287.994,394.5601" style="stroke:#181818;stroke-width:1.0;"/><text fill="#0000FF" font-family="sans-serif" font-size="13" lengthAdjust="spacing" textLength="84.2207" x="307.404" y="297.4326">synchronized</text></g><!--link SYNC to UNKNOWN--><g id="link_SYNC_UNKNOWN"><path d="M321.284,394.5001 C350.074,377.4001 383.984,351.4601 400.404,317.5801 C424.644,267.5701 372.0494,222.0027 328.7894,193.9727 " fill="none" id="SYNC-to-UNKNOWN" style="stroke:#181818;stroke-width:1.0;"/><polygon fill="#181818" points="323.754,190.7101,329.132,198.961,327.9502,193.4289,333.4822,192.2471,323.754,190.7101" style="stroke:#181818;stroke-width:1.0;"/><text fill="#0000FF" font-family="sans-serif" font-size="13" lengthAdjust="spacing" textLength="57.8716" x="406.404" y="297.4326">unknown</text></g><!--link FREE to SYNC--><g id="link_FREE_SYNC"><path d="M115.484,317.7001 C96.824,330.9101 82.074,347.9501 94.404,364.5801 C121.244,400.7601 165.7153,412.9378 206.0753,417.0778 " fill="none" id="FREE-to-SYNC" style="stroke:#181818;stroke-width:1.0;"/><polygon fill="#181818" points="212.044,417.6901,203.4992,412.7926,207.0701,417.1799,202.6828,420.7508,212.044,417.6901" style="stroke:#181818;stroke-width:1.0;"/><text fill="#0000FF" font-family="sans-serif" font-size="13" lengthAdjust="spacing" textLength="84.2207" x="95.404" y="360.9326">synchronized</text></g><!--link SYNC to FREE--><g id="link_SYNC_FREE"><path d="M248.504,394.4401 C239.554,385.2201 229.384,374.5301 220.404,364.5801 C206.674,349.3601 195.6356,336.3873 184.1256,322.5173 " fill="none" id="SYNC-to-FREE" style="stroke:#181818;stroke-width:1.0;"/><polygon fill="#181818" points="180.294,317.9001,182.9633,327.3803,183.487,321.7478,189.1196,322.2715,180.294,317.9001" style="stroke:#181818;stroke-width:1.0;"/><text fill="#0000FF" font-family="sans-serif" font-size="13" lengthAdjust="spacing" textLength="74.0391" x="221.404" y="360.9326">freerunning</text></g><rect fill="#DDDDDD" height="26.29" id="_legend" rx="7.5" ry="7.5" style="stroke:#000000;stroke-width:1.0;" width="198.8086" x="167.7705" y="461.833"/><text fill="#008000" font-family="sans-serif" font-size="14" lengthAdjust="spacing" textLength="33.5439" x="172.7705" y="480.1357">State</text><text fill="#000000" font-family="sans-serif" font-size="14" lengthAdjust="spacing" textLength="5.2295" x="210.7441" y="480.1357">|</text><text fill="#0000FF" font-family="sans-serif" font-size="14" lengthAdjust="spacing" textLength="83.6855" x="220.4033" y="480.1357">Clock Status</text><text fill="#000000" font-family="sans-serif" font-size="14" lengthAdjust="spacing" textLength="5.2295" x="308.5186" y="480.1357">|</text><text fill="#800080" font-family="sans-serif" font-size="14" lengthAdjust="spacing" textLength="43.4014" x="318.1777" y="480.1357">Action</text><!--SRC=[ZP9FQy904CNl-oaU7WlIkqX0hDRI6i4_I6bxYCcOBgwpifjOBFtmtTsOjC4MF6qOtk-zbs4AMIZ2eaWAmfrCSfFiiTK6GwNJdH-N5fAnc4onVbXEPgibdkIHC9LEMaZDhuo1KYXCmbRwWNNVCi_9M6nEI1Zb8VFkMwFtID-DvXDSm5BkNUw9KrWoHvcI4CA66fr-gfKslTmGSOGLxrX_CFgtOHnra5YiuiTujevxVoDZzynBPibv6nlFHwD_65_5bvEVbBMXnNCyx0dnSlE6RkQQTACwNfpVPXxySJRUg9AYhNCtLPNQz88A0ItA_YhJOCAxetizqEZhRRMGijfhhOOGtlPg_O_wkfyMYdBYJA1MteUzXyjhEdorRC8DeZh2IycXD0T5qI3rHzV4k0XKITy0]--></g></svg>